<?xml version="1.0" ?><svg height="18px" version="1.1" viewBox="0 0 19 18" width="19px" xmlns="http://www.w3.org/2000/svg" xmlns:sketch="http://www.bohemiancoding.com/sketch/ns" xmlns:xlink="http://www.w3.org/1999/xlink"><title/><desc/><defs/><g fill="none" fill-rule="evenodd" id="Page-1" stroke="none" stroke-width="1"><g fill="#000000" id="Core" transform="translate(-129.000000, -381.000000)"><g id="report" transform="translate(129.000000, 381.000000)"><path d="M12.7,0 L5.3,0 L0,5.3 L0,12.8 L5.3,18 L12.8,18 L18.1,12.7 L18.1,5.3 L12.7,0 L12.7,0 Z M9,14.3 C8.3,14.3 7.7,13.7 7.7,13 C7.7,12.3 8.3,11.7 9,11.7 C9.7,11.7 10.3,12.3 10.3,13 C10.3,13.7 9.7,14.3 9,14.3 L9,14.3 Z M10,10 L8,10 L8,4 L10,4 L10,10 L10,10 Z" id="Shape"/></g></g></g></svg>